#!OML:ASF F:\VICON\USERDATA\INSTALL\rory3\rory3.ASF
:FULLY-SPECIFIED
:DEGREES
3603
root 13.622 17.8661 -11.1065 -1437.6 50.6989 5.16923
lowerback 11.7814 2.97008 -1.7528
upperback 1.04526 3.69783 -0.712713
thorax -5.5656 1.86153 -0.36864
lowerneck -14.1641 -9.33792 -11.8926
upperneck 27.661 -12.8616 9.69979
head 13.0654 -5.67722 3.67798
rclavicle 7.17116e-014 -9.74045e-015
rhumerus -30.2922 -7.93192 -83.7193
rradius 33.3215
rwrist 5.4681
rhand -17.0027 9.02885
rfingers 7.12502
rthumb 9.23275 -20.749
lclavicle 7.17116e-014 -9.74045e-015
lhumerus -35.4569 1.05252 81.7885
lradius 36.5928
lwrist -4.70837
lhand -17.3085 25.2041
lfingers 7.12502
lthumb 8.93761 54.9948
rfemur -10.622 -3.16248 29.915
rtibia 26.0676
rfoot -12.2042 -2.32573
rtoes 23.7182
lfemur -16.1985 1.52698 -16.8505
ltibia 59.8003
lfoot -0.0228282 -1.77989
ltoes -4.17458
3604
root 13.673 17.8445 -11.0959 -1437.89 49.2623 5.00717
lowerback 11.9769 3.09331 -1.47484
upperback 1.00718 3.88166 -0.903275
thorax -5.68461 1.94273 -0.766263
lowerneck -14.2959 -9.3231 -11.1082
upperneck 27.6614 -12.9227 9.29493
head 13.0008 -5.66992 3.37507
rclavicle -1.15916e-014 6.55989e-015
rhumerus -30.1528 -8.13974 -84.1094
rradius 33.641
rwrist 5.31167
rhand -17.3575 8.99706
rfingers 7.12502
rthumb 8.89041 -20.7956
lclavicle -1.15916e-014 6.55989e-015
lhumerus -35.3752 0.386825 81.686
lradius 36.4194
lwrist -4.33035
lhand -17.3053 25.3185
lfingers 7.12502
lthumb 8.94072 55.1091
rfemur -10.3728 -2.48349 29.8584
rtibia 26.2235
rfoot -12.424 -1.49448
rtoes 21.912
lfemur -16.4588 0.859379 -16.8291
ltibia 59.2743
lfoot -0.515941 -0.275272
ltoes -4.96434
3605
root 13.7317 17.8331 -11.0863 -1437.79 48.0094 5.14214
lowerback 11.938 3.03831 -1.33956
upperback 0.938019 3.81895 -1.01809
thorax -5.71888 1.90698 -0.951546
lowerneck -14.3019 -9.23106 -10.9543
upperneck 27.6526 -12.783 9.11967
head 12.9526 -5.61749 3.30671
rclavicle -1.40007e-013 8.94531e-015
rhumerus -29.955 -7.77196 -84.4353
rradius 33.8605
rwrist 5.11518
rhand -17.6178 8.87974
rfingers 7.12502
rthumb 8.63915 -20.9235
lclavicle -1.40007e-013 8.94531e-015
lhumerus -35.0225 1.596 81.2125
lradius 35.2907
lwrist -5.47208
lhand -17.1372 24.667
lfingers 7.12502
lthumb 9.10298 54.4506
rfemur -10.2806 -2.43843 29.5867
rtibia 26.4679
rfoot -12.3054 -0.465974
rtoes 19.435
lfemur -16.8141 -0.0250162 -17.0563
ltibia 58.5683
lfoot -1.3244 0.40113
ltoes -5.01465
3606
root 13.7898 17.8222 -11.0672 -1437.77 46.7115 5.21779
lowerback 11.8062 2.8169 -1.34824
upperback 0.875961 3.53038 -0.907837
thorax -5.71899 1.7661 -0.777981
lowerneck -14.2168 -8.9571 -11.5837
upperneck 27.727 -12.2594 9.20177
head 12.955 -5.44897 3.54166
rclavicle 3.22031e-014 8.94531e-015
rhumerus -29.7348 -6.53081 -84.7296
rradius 34.0478
rwrist 4.84212
rhand -17.7309 8.615
rfingers 7.12502
rthumb 8.53 -21.1927
lclavicle 3.22031e-014 8.94531e-015
lhumerus -35.7994 2.23023 81.213
lradius 35.7845
lwrist -5.38952
lhand -17.003 25.245
lfingers 7.12502
lthumb 9.23244 55.0228
rfemur -10.187 -2.25175 29.3823
rtibia 26.8426
rfoot -12.3023 0.585585
rtoes 19.4922
lfemur -17.1035 -0.749837 -17.1556
ltibia 57.7664
lfoot -1.74328 0.643104
ltoes -1.56421
3607
root 13.8421 17.8111 -11.042 -1438.07 45.3234 5.05017
lowerback 11.7914 2.67906 -1.32698
upperback 0.901628 3.35928 -0.743489
thorax -5.6923 1.683 -0.587838
lowerneck -14.2777 -8.74552 -11.9532
upperneck 27.7672 -11.8428 9.15939
head 12.9545 -5.31166 3.65992
rclavicle -5.55852e-014 1.13307e-014
rhumerus -29.4389 -5.57454 -84.9645
rradius 34.2507
rwrist 4.77135
rhand -17.7101 8.67562
rfingers 7.12502
rthumb 8.55015 -21.1313
lclavicle -5.55852e-014 1.13307e-014
lhumerus -36.1993 3.30806 80.9996
lradius 35.9045
lwrist -6.01098
lhand -16.1091 24.6882
lfingers 7.12502
lthumb 10.0949 54.4261
rfemur -9.86664 -1.67605 29.3973
rtibia 27.2138
rfoot -12.6118 1.52032
rtoes 20.4419
lfemur -17.2369 -1.273 -17.0478
ltibia 56.9739
lfoot -2.40877 0.805523
ltoes -0.162519
3608
root 13.8938 17.8004 -11.0218 -1438.34 43.8859 4.82643
lowerback 11.7352 2.67924 -1.20346
upperback 0.942707 3.38193 -0.650199
thorax -5.61622 1.69205 -0.558814
lowerneck -14.4249 -8.67592 -12.0471
upperneck 27.7582 -11.707 9.15199
head 12.9698 -5.26187 3.69144
rclavicle 4.35835e-014 -5.56597e-015
rhumerus -29.1698 -4.9588 -85.1876
rradius 34.477
rwrist 4.72442
rhand -18.2008 9.20361
rfingers 7.12502
rthumb 8.07649 -20.6221
lclavicle 4.35835e-014 -5.56597e-015
lhumerus -36.1707 3.64638 80.9243
lradius 35.5492
lwrist -6.28168
lhand -15.4896 24.1668
lfingers 7.12502
lthumb 10.6925 53.8747
rfemur -9.61549 -1.05384 29.4517
rtibia 27.5356
rfoot -13.0367 2.23232
rtoes 20.2947
lfemur -17.498 -1.70976 -16.9577
ltibia 56.1999
lfoot -3.19071 0.930103
ltoes -1.86084
3609
root 13.948 17.7887 -11.0095 -1438.43 42.3343 4.55097
lowerback 11.4904 2.70449 -0.987098
upperback 0.957931 3.45182 -0.556014
thorax -5.45703 1.72256 -0.579523
lowerneck -14.6307 -8.6043 -12.1228
upperneck 27.6778 -11.5575 9.13054
head 12.9636 -5.20532 3.71341
rclavicle -5.59082e-015 7.15625e-015
rhumerus -28.8348 -4.0991 -85.5241
rradius 34.5865
rwrist 5.0051
rhand -19.595 9.64489
rfingers 7.12502
rthumb 6.73081 -20.2281
lclavicle -5.59082e-015 7.15625e-015
lhumerus -36.2623 2.55695 81.4222
lradius 35.5786
lwrist -5.03784
lhand -16.5577 25.4947
lfingers 7.12502
lthumb 9.66214 55.2531
rfemur -9.69059 -0.578721 29.5
rtibia 27.8963
rfoot -13.4299 3.17432
rtoes 18.4829
lfemur -18.06 -2.03559 -16.8552
ltibia 55.4315
lfoot -3.68557 1.35213
ltoes -4.40162
3610
root 13.9957 17.7755 -10.978 -1438.59 41.0869 4.42959
lowerback 11.3307 2.65346 -1.07784
upperback 1.08074 3.38188 -0.451329
thorax -5.25053 1.69192 -0.39616
lowerneck -14.9345 -8.51933 -12.0545
upperneck 27.5864 -11.3978 9.04593
head 12.9563 -5.13419 3.68546
rclavicle -3.06874e-014 1.66979e-014
rhumerus -28.3587 -3.36538 -85.8586
rradius 34.7633
rwrist 5.0224
rhand -20.1185 9.3491
rfingers 7.12502
rthumb 6.22544 -20.5394
lclavicle -3.06874e-014 1.66979e-014
lhumerus -36.2834 2.01698 81.6745
lradius 35.5979
lwrist -4.45454
lhand -17.1064 26.4958
lfingers 7.12502
lthumb 9.13266 56.2781
rfemur -9.49268 -0.000128387 29.5287
rtibia 28.283
rfoot -13.9041 3.73401
rtoes 16.7631
lfemur -18.3526 -2.55515 -16.7389
ltibia 54.5734
lfoot -4.10409 1.77206
ltoes -5.14263
3611
root 14.0466 17.7604 -10.9547 -1438.62 39.8228 4.49696
lowerback 11.3689 2.63144 -1.05311
upperback 1.0654 3.35138 -0.506988
thorax -5.28293 1.67547 -0.465595
lowerneck -15.0738 -8.44098 -11.8888
upperneck 27.5633 -11.2985 8.96823
head 12.9443 -5.08196 3.6404
rclavicle -1.94312e-014 9.14409e-015
rhumerus -28.1402 -3.11339 -86.0935
rradius 35.2019
rwrist 4.43871
rhand -19.3812 8.62644
rfingers 7.12502
rthumb 6.93716 -21.2399
lclavicle -1.94312e-014 9.14409e-015
lhumerus -36.4212 2.0271 81.4977
lradius 35.4332
lwrist -4.68513
lhand -16.5825 26.0277
lfingers 7.12502
lthumb 9.63821 55.7872
rfemur -9.34345 0.520352 29.3436
rtibia 28.6792
rfoot -14.3816 4.44167
rtoes 19.0121
lfemur -18.6115 -3.10986 -16.8162
ltibia 53.6109
lfoot -4.56049 2.10822
ltoes -4.75474
3612
root 14.098 17.7465 -10.9312 -1438.71 38.5123 4.40982
lowerback 11.4878 2.62797 -0.850012
upperback 0.936033 3.36516 -0.564323
thorax -5.47004 1.67579 -0.651424
lowerneck -15.0553 -8.37916 -11.8064
upperneck 27.591 -11.2414 8.96078
head 12.9373 -5.05197 3.63526
rclavicle -6.96492e-014 3.97569e-016
rhumerus -28.1564 -3.05705 -86.3628
rradius 35.5318
rwrist 4.29843
rhand -18.6782 8.40721
rfingers 7.12502
rthumb 7.61572 -21.4357
lclavicle -6.96492e-014 3.97569e-016
lhumerus -36.6791 1.85732 81.3605
lradius 35.2465
lwrist -4.69081
lhand -16.2504 25.4289
lfingers 7.12502
lthumb 9.95858 55.1733
rfemur -9.2415 0.86837 29.2671
rtibia 29.0542
rfoot -14.811 5.32986
rtoes 20.9391
lfemur -18.9045 -3.52199 -16.7712
ltibia 52.5616
lfoot -5.06805 2.26077
ltoes -5.18843
3613
root 14.1471 17.7382 -10.9051 -1438.65 37.1718 4.3637
lowerback 11.482 2.62209 -0.753334
upperback 0.766718 3.36475 -0.601828
thorax -5.63723 1.67137 -0.749887
lowerneck -15.0295 -8.30139 -11.8585
upperneck 27.6306 -11.1454 9.02013
head 12.9432 -5.011 3.68618
rclavicle -1.93318e-014 -1.59028e-015
rhumerus -28.1621 -2.89016 -86.6707
rradius 35.6499
rwrist 4.46363
rhand -18.2459 8.60864
rfingers 7.12502
rthumb 8.03297 -21.2187
lclavicle -1.93318e-014 -1.59028e-015
lhumerus -36.8088 2.24357 81.2416
lradius 34.872
lwrist -5.0695
lhand -16.0367 25.1803
lfingers 7.12502
lthumb 10.1648 54.9148
rfemur -9.26822 1.24647 29.1702
rtibia 29.3758
rfoot -15.0451 6.27039
rtoes 21.3144
lfemur -19.365 -3.77443 -16.7451
ltibia 51.4604
lfoot -5.52725 2.28811
ltoes -6.23448
3614
root 14.1951 17.7302 -10.8759 -1438.6 35.9293 4.41416
lowerback 11.5061 2.59508 -0.735077
upperback 0.663235 3.32674 -0.642624
thorax -5.75642 1.65065 -0.801225
lowerneck -15.0799 -8.23855 -11.9103
upperneck 27.6157 -11.0546 9.06279
head 12.9421 -4.97295 3.72579
rclavicle -9.93923e-017 -9.14409e-015
rhumerus -28.0725 -2.50579 -86.9701
rradius 35.7512
rwrist 4.37095
rhand -18.2186 8.60014
rfingers 7.12502
rthumb 8.05937 -21.2262
lclavicle -9.93923e-017 -9.14409e-015
lhumerus -36.7312 3.21145 81.008
lradius 34.2562
lwrist -6.05661
lhand -15.7544 24.4593
lfingers 7.12502
lthumb 10.4371 54.1803
rfemur -9.16532 1.66982 29.0066
rtibia 29.5912
rfoot -15.274 6.88535
rtoes 21.6095
lfemur -19.7183 -4.08173 -16.7842
ltibia 50.3105
lfoot -6.06585 2.1515
ltoes -7.83465
3615
root 14.2432 17.725 -10.8386 -1438.62 34.74 4.41009
lowerback 11.3968 2.59271 -0.754317
upperback 0.699513 3.32488 -0.59926
thorax -5.66084 1.65117 -0.738055
lowerneck -15.168 -8.25637 -11.8237
upperneck 27.4716 -11.0409 8.89225
head 12.8811 -4.9808 3.63994
rclavicle -1.29881e-013 1.27222e-014
rhumerus -27.8396 -2.03948 -87.1464
rradius 35.8945
rwrist 4.12697
rhand -18.2576 8.75335
rfingers 7.12502
rthumb 8.0217 -21.0744
lclavicle -1.29881e-013 1.27222e-014
lhumerus -36.5674 3.48365 81.0185
lradius 33.8019
lwrist -6.40689
lhand -15.9089 24.2731
lfingers 7.12502
lthumb 10.2881 54.0015
rfemur -8.93501 2.13431 28.9157
rtibia 29.7132
rfoot -15.8367 6.96969
rtoes 20.8225
lfemur -19.9506 -4.51251 -16.7435
ltibia 49.1095
lfoot -6.68693 1.77154
ltoes -10.4701
